<svg width="260" height="454" viewBox="0 0 260 454" fill="none" xmlns="http://www.w3.org/2000/svg">
<path d="M116.769 88.9289H202.538C206.719 88.9289 210.11 92.3321 210.11 96.5292V146.671C210.11 150.868 206.719 154.271 202.538 154.271H142.525C138.667 159.673 131.67 169.348 131.056 169.348C130.477 169.348 131.59 160.212 132.376 154.271H116.773C112.592 154.271 109.201 150.868 109.201 146.671V96.5292C109.201 92.3321 112.592 88.9289 116.773 88.9289H116.769Z" fill="#F4F2EA"/>
<path d="M5.79906 94.0596C6.52115 98.9429 7.92145 106.679 7.92145 106.679C7.5624 108.737 6.15412 117.315 4.45063 127.828L20.576 123.04C20.576 123.04 21.9802 105.781 22.7741 104.792C23.4444 103.954 24.326 105.159 29.7238 98.7754C31.2796 96.9321 31.8621 93.4372 31.8621 93.4372C31.8621 93.4372 32.5443 89.1324 31.6108 88.6417C30.6772 88.147 29.5003 88.6936 29.0815 89.4077C28.6586 90.1218 28.5908 91.8733 28.1679 92.5914C27.745 93.3056 25.4152 93.9998 24.4697 93.8681C23.5282 93.7325 25.7702 81.0694 25.7702 81.0694C25.7702 81.0694 26.6319 77.4987 27.0109 76.3417C27.3341 75.3522 28.5229 72.4757 28.5229 72.4757C28.5229 72.4757 29.999 68.2786 28.6945 67.8278C27.9245 67.5605 25.6027 70.8679 23.8872 74.4426C22.0401 78.2966 20.8113 82.4458 20.3924 82.35C19.411 82.1266 20.5839 75.1767 20.5839 75.1767C20.5839 75.1767 21.8685 72.0608 21.9842 70.5487C23.0893 68.7813 24.0268 65.4021 22.4071 64.9632C22.1079 64.8834 19.5387 69.0486 19.5387 69.0486C19.5387 69.0486 18.4017 72.0448 17.7714 73.4372C16.6623 75.8908 16.1596 79.8805 15.5373 81.604C15.0227 83.0363 14.7314 82.4019 14.5718 82.4498C14.4482 82.4857 14.8471 80.4789 15.3458 77.7181C15.5971 76.3257 15.5852 74.6939 16.1237 73.134C16.6224 71.6898 17.0254 69.5912 17.2408 68.3225C17.8432 64.7278 15.5293 64.8874 14.4362 68.123C14.0213 69.3558 13.5785 70.7003 13.1317 72.0688C11.4082 77.3829 10.9574 82.6094 10.371 82.6014C9.60499 82.5894 10.9853 73.118 10.9853 73.118C10.9853 73.118 10.3071 67.744 8.6954 72.5236C6.82834 78.0732 6.5411 82.7091 6.5411 82.9166C6.53711 84.3129 5.07697 89.1723 5.79906 94.0516V94.0596Z" fill="#F8A492"/>
<path d="M102.858 454H137.778C134.874 424.852 128.953 375.388 127.9 345.777C127.888 345.39 124.405 319.637 124.405 319.637L69.8456 336.067L83.1424 376.629L102.858 454.004V454Z" fill="#3B314A"/>
<path d="M72.7898 454L106.285 352.795L116.554 323.607L50.1577 345.163L46.7826 369.811L40.212 454H72.7898Z" fill="#6C5E81"/>
<path d="M212.54 257.539C208.323 258.947 201.529 260.97 201.529 260.97C200.017 262.095 193.698 266.719 185.938 272.368L183.226 257.451C183.226 257.451 196.53 249.296 197.005 248.259C197.408 247.381 196.08 247.162 199.012 240.224C199.858 238.221 202.431 236.33 202.431 236.33C202.431 236.33 205.614 234.028 206.388 234.578C207.166 235.129 207.206 236.294 206.803 236.924C206.4 237.555 205.02 238.325 204.617 238.955C204.214 239.585 204.605 241.744 205.096 242.446C205.586 243.148 214.858 236.19 214.858 236.19C214.858 236.19 217.375 234.044 218.157 233.266C218.819 232.604 220.647 230.477 220.647 230.477C220.647 230.477 223.419 227.585 224.313 228.446C224.839 228.957 223.128 232.173 220.95 235.005C218.604 238.057 215.767 240.738 216.011 241.034C216.589 241.732 221.7 237.962 221.7 237.962C221.7 237.962 223.679 235.66 224.851 234.953C225.821 233.346 228.159 231.215 229.168 232.34C229.355 232.548 227.05 236.314 227.05 236.314C227.05 236.314 225.103 238.448 224.241 239.522C222.721 241.413 219.717 243.439 218.58 244.64C217.639 245.638 218.265 245.61 218.293 245.761C218.313 245.877 219.765 244.74 221.784 243.216C222.801 242.446 224.117 241.792 225.151 240.722C226.108 239.733 227.632 238.556 228.566 237.866C231.211 235.919 232.024 237.846 229.866 240.04C229.044 240.878 228.143 241.78 227.225 242.693C223.655 246.244 219.633 248.73 219.881 249.2C220.204 249.811 227.257 244.848 227.257 244.848C227.257 244.848 231.857 243.208 228.665 246.448C224.963 250.206 221.349 252.324 221.185 252.412C220.064 252.987 216.749 256.134 212.532 257.543L212.54 257.539Z" fill="#F8A492"/>
<path d="M204.414 260.611C201.916 256.45 197.759 253.521 195.138 249.192L136.27 273.429C136.27 273.429 106.752 218.021 81.6543 229.982C87.6505 247.872 95.7251 265.518 100.006 274.016C109.648 293.15 128.064 305.259 132.376 304.305C137.231 303.232 202.957 261.756 204.41 260.611H204.414Z" fill="#4460FF"/>
<path d="M106.062 239.246L90.3274 226.324C90.3274 226.324 74.1063 225.227 72.1076 225.043C70.1049 224.86 50.6284 297.327 44.4009 324.704C38.1734 352.081 40.5631 357.248 40.5631 357.248C40.5631 357.248 65.6248 365.366 84.7182 365.434C104.57 365.506 127.704 356.92 127.704 356.92C127.704 356.92 115.788 302.107 113.989 285.171C112.186 268.235 106.066 239.246 106.066 239.246H106.062Z" fill="#F4F2EA"/>
<path d="M72.8496 225.007L24.7409 165.997C24.7409 165.997 22.064 114.143 21.7169 112.169C21.3738 110.23 8.2805 107.987 3.01443 106.978C1.32291 106.655 -1.12262 161.56 0.572893 170.956C2.57559 182.059 38.1654 235.085 38.1654 235.085C38.1654 235.085 42.8929 262.462 39.3543 281.899C33.4698 314.18 21.5813 358.233 22.842 359.765C30.9685 365.997 64.037 369.635 66.4466 366.456C93.0362 331.307 72.8496 225.007 72.8496 225.007Z" fill="#4460FF"/>
<path d="M97.4126 159.94C97.4126 159.94 90.2676 150.864 82.9669 160.427C82.9669 160.427 78.3152 157.219 74.4215 161.808C74.4215 161.808 65.8083 158.325 62.4332 171.375C62.4332 171.375 57.9531 170.094 56.852 175.456C55.7509 180.822 58.1685 184.688 58.1685 184.688C58.1685 184.688 55.4277 186.372 56.1339 191.462C56.7323 195.791 60.1792 196.761 60.1792 196.761C60.1792 196.761 60.4664 203.99 63.3667 206.428C66.2671 208.865 70.5757 208.223 70.5757 208.223C70.5757 208.223 71.3376 212.197 74.98 212.189C78.6264 212.177 83.4177 209.148 87.3154 211.071C91.217 212.994 101.861 212.328 101.861 212.328C101.861 212.328 114.132 208.167 111.715 195.799C111.715 195.799 118.425 190.78 113.626 183.567C113.626 183.567 118.553 173.437 111.296 166.519C104.039 159.601 97.4126 159.944 97.4126 159.944V159.94Z" fill="#3B314A"/>
<path d="M90.846 216.473L91.2968 227.237C91.2968 227.237 93.0921 242.849 88.6917 245.418C84.2914 247.988 72.8576 225.095 72.8576 225.095L76.7633 198.289L90.846 216.473Z" fill="#F7A491"/>
<path d="M75.4986 206.974C78.0599 216.477 85.6637 222.873 91.229 225.598L90.846 216.473L76.7633 198.289L75.4986 206.974Z" fill="#F47458"/>
<path d="M56.477 177.954C56.098 182.055 58.1246 185.598 61.001 185.861C63.8774 186.128 66.5184 183.016 66.8974 178.915C67.2764 174.814 65.2498 171.271 62.3734 171.008C59.497 170.74 56.856 173.852 56.477 177.954Z" fill="#3B314A"/>
<path d="M73.5837 163.431C73.3683 165.789 76.0292 167.964 79.528 168.287C83.0307 168.61 86.0427 166.962 86.2621 164.604C86.4816 162.246 83.8166 160.072 80.3179 159.749C76.8151 159.426 73.8031 161.073 73.5837 163.431Z" fill="#3B314A"/>
<path d="M88.9151 170.872C97.5603 168.761 105.978 175.153 106.461 183.906C106.668 187.712 106.736 192.48 106.353 197.65C105.431 210.086 97.8914 221.576 92.2543 221.058C86.6172 220.539 71.7765 211.064 72.8417 193.385C73.4999 182.47 79.8431 173.086 88.9151 170.872Z" fill="#F7A491"/>
<path d="M76.867 195.161C76.6157 197.898 74.593 199.952 72.3549 199.745C70.1169 199.537 68.5051 197.152 68.7565 194.411C69.0078 191.674 71.0305 189.619 73.2685 189.827C75.5066 190.034 77.1183 192.42 76.867 195.161Z" fill="#F7A491"/>
<path d="M113.909 166.95C119.307 172.101 120.699 179.298 117.021 183.028C113.342 186.755 105.986 185.602 100.588 180.451C95.1905 175.3 93.7982 168.103 97.4765 164.373C101.155 160.643 108.511 161.796 113.909 166.95Z" fill="#3B314A"/>
<path d="M98.3382 169.324C98.1547 171.331 95.5815 172.731 92.5974 172.456C89.6093 172.181 87.3393 170.333 87.5268 168.327C87.7103 166.324 90.2835 164.919 93.2676 165.195C96.2557 165.47 98.5257 167.317 98.3382 169.324Z" fill="#3B314A"/>
<path d="M112.999 186.24C112.76 188.817 110.502 190.716 107.953 190.481C105.404 190.246 103.528 187.964 103.768 185.386C104.007 182.809 106.265 180.91 108.814 181.145C111.364 181.381 113.239 183.663 112.999 186.24Z" fill="#3B314A"/>
<path d="M118.469 253.322C118.469 253.322 130.513 316.713 134.838 339.071C135.304 341.492 136.936 356.992 136.796 358.476C136.493 361.768 121.784 364.62 120.105 364.217C118.605 363.854 112.054 298.241 106.987 265.961C105.272 255.021 101.566 244.493 96.0522 234.894L91.4644 229.081L91.2968 227.237C91.2968 227.237 115.772 234.842 118.469 253.322Z" fill="#4460FF"/>
<path d="M99.2438 209.639L88.209 207.656C88.209 207.656 87.7103 211.961 92.5375 212.979C98.422 214.215 99.2438 209.639 99.2438 209.639Z" fill="white"/>
<path d="M150.496 89.1603C148.749 87.5765 146.946 86.0564 145.23 84.4406C144.915 84.1454 144.7 83.4751 144.799 83.0602C145.434 80.4031 146.223 77.7859 146.842 75.1248C147.021 74.3508 147.257 73.9638 148.051 73.7803C150.847 73.122 153.624 72.3919 156.409 71.6858C156.859 71.5701 157.306 71.4424 158.088 71.227C157.41 67.0099 156.74 62.8408 156.049 58.5679C152.567 58.7554 149.399 58.8751 146.243 59.1264C145.13 59.2142 144.56 59.0067 144.009 57.9056C142.884 55.6594 141.444 53.5689 140.195 51.3785C140.004 51.0434 139.992 50.417 140.179 50.0859C141.604 47.5445 143.028 44.9951 144.6 42.5455C145.358 41.3686 145.166 40.6504 144.121 39.9044C143.722 39.6171 143.423 39.1862 143.076 38.8192C141.281 37.4946 139.485 36.1701 137.69 34.8455C137.451 34.7617 137.195 34.7139 136.98 34.5902C134.746 33.2816 135.201 33.3654 133.569 35.1527C131.582 37.3311 129.631 39.5453 127.924 41.4523C124.337 40.5906 120.986 39.7887 117.523 38.9588C116.658 35.5437 115.748 31.977 114.839 28.3863C110.474 28.3504 106.345 29.1364 102.224 30.413C102.415 33.8361 102.595 37.1755 102.794 40.5148C102.83 41.1132 102.747 41.4603 102.112 41.8074C99.6427 43.1559 97.2012 44.5722 94.8275 46.0923C94.1453 46.5311 93.7503 46.4753 93.136 46.1082C90.5987 44.5882 88.0255 43.124 85.4802 41.6119C84.8499 41.2369 84.411 41.193 83.8166 41.7795C81.1636 44.4087 79.1689 47.4887 77.4295 50.7602C77.0864 51.4065 77.3697 51.7496 77.8404 52.1605C80.0027 54.0516 82.1211 55.9945 84.2993 57.8737C84.9257 58.4163 85.0813 58.8232 84.818 59.6969C83.9004 62.7091 83.1584 65.7771 82.2847 69.0726C79.1809 69.8625 75.6582 70.7562 72.1395 71.6499C72.0837 76.0943 72.6781 80.3034 74.0584 84.4286C77.7926 84.2012 81.4269 83.9818 84.7182 83.7823C86.3818 86.3676 87.8699 88.8093 89.5056 91.1432C90.1239 92.0249 90.1718 92.6313 89.6053 93.533C88.1013 95.9307 86.693 98.3884 85.2688 100.834C84.9855 101.317 84.4948 101.855 85.2329 102.394C88.2449 104.58 91.2569 106.771 94.2729 108.957C94.9153 109.424 95.386 109.252 95.8967 108.658C97.8036 106.451 99.8103 104.329 101.677 102.095C102.399 101.233 103.034 101.285 103.999 101.56C106.377 102.234 108.787 102.861 111.22 103.268C112.269 103.443 112.616 103.77 112.84 104.76C113.55 107.932 114.388 111.079 115.162 114.167C117.771 114.538 125.199 113.33 127.992 112.105C127.78 108.805 127.597 105.466 127.325 102.135C127.258 101.301 127.545 100.99 128.235 100.591C130.449 99.31 132.576 97.8697 134.778 96.5651C135.149 96.3457 135.843 96.2938 136.202 96.4973C138.476 97.7859 140.71 99.1544 142.94 100.523C144.185 101.289 144.688 101.6 145.246 101.333L152.295 91.7736C152.427 90.9317 151.908 90.453 150.496 89.1723V89.1603ZM130.326 82.5695C124.026 91.1113 111.99 92.9305 103.449 86.6309C94.9033 80.3313 93.0881 68.2946 99.3874 59.7528C105.687 51.207 117.723 49.3917 126.264 55.6913C134.81 61.991 136.625 74.0237 130.326 82.5695Z" fill="#BBD631"/>
<path d="M254.09 26.6468C251.784 26.974 249.49 27.3809 247.176 27.6602C246.753 27.7121 246.107 27.4527 245.856 27.1176C244.244 24.9552 242.752 22.7011 241.128 20.5507C240.654 19.9243 240.51 19.5014 240.873 18.7793C242.146 16.2419 243.346 13.6686 244.571 11.1112C244.771 10.6963 244.954 10.2734 245.285 9.54727C241.659 7.39686 238.068 5.2664 234.39 3.08806C232.332 5.84888 230.417 8.32644 228.609 10.8838C227.971 11.7855 227.453 12.0847 226.272 11.8054C223.854 11.2389 221.361 11.0115 218.907 10.5686C218.532 10.5008 218.049 10.1178 217.914 9.76271C216.884 7.0737 215.851 4.3807 214.99 1.63583C214.575 0.319253 213.912 0.00806183 212.684 0.327232C212.213 0.450911 211.698 0.403035 211.2 0.434952C209.057 0.961584 206.919 1.48423 204.777 2.01086C204.561 2.13852 204.362 2.30609 204.134 2.38588C201.725 3.25163 202.08 2.96039 202.403 5.33023C202.798 8.21872 203.245 11.0952 203.612 13.6007C200.691 15.7791 197.959 17.8138 195.138 19.9163C191.998 18.4162 188.719 16.8443 185.416 15.2644C182.627 18.5519 180.612 22.1824 178.973 26.1202C181.694 28.1429 184.339 30.1178 187 32.0767C187.478 32.4278 187.686 32.7111 187.55 33.4093C187.012 36.1382 186.541 38.887 186.194 41.6478C186.094 42.4418 185.803 42.7051 185.137 42.9405C182.376 43.902 179.639 44.9313 176.882 45.9048C176.196 46.1481 175.889 46.4514 175.961 47.2732C176.276 50.9517 177.353 54.4107 178.733 57.8019C179.005 58.4721 179.448 58.4721 180.054 58.3764C182.859 57.9295 185.671 57.5545 188.472 57.0877C189.278 56.9521 189.688 57.0957 190.183 57.8497C191.891 60.451 193.75 62.9565 195.693 65.7013C194.328 68.5539 192.78 71.7935 191.228 75.0291C194.568 77.8817 198.134 80.0959 202.14 81.6559C204.33 78.6796 206.46 75.7791 208.391 73.1579C211.403 73.529 214.2 73.9439 217.004 74.1793C218.065 74.2671 218.552 74.6142 218.879 75.6156C219.749 78.2727 220.718 80.8978 221.676 83.527C221.863 84.0456 221.959 84.7638 222.837 84.5404C226.403 83.6387 229.97 82.7371 233.536 81.8314C234.294 81.6399 234.462 81.1731 234.338 80.4111C233.872 77.5665 233.528 74.7019 233.014 71.8693C232.814 70.7761 233.257 70.3293 234.075 69.7708C236.09 68.3903 238.088 66.9621 239.939 65.3702C240.737 64.684 241.204 64.6281 242.094 65.0869C244.95 66.5551 247.867 67.9076 250.699 69.276C252.634 67.5286 256.412 61.1252 257.25 58.2327C254.613 56.3057 251.964 54.3309 249.263 52.4318C248.589 51.957 248.533 51.5381 248.664 50.7681C249.095 48.2746 249.347 45.7532 249.75 43.2557C249.817 42.8368 250.22 42.2742 250.599 42.1306C253.017 41.217 255.466 40.3911 257.916 39.5653C259.284 39.1025 259.839 38.9229 259.99 38.3285L257.194 26.9341C256.639 26.2997 255.945 26.3915 254.082 26.6548L254.09 26.6468ZM236.329 37.7859C238.826 47.9714 232.595 58.2527 222.41 60.7502C212.225 63.2477 201.944 57.0159 199.447 46.8304C196.949 36.6448 203.181 26.3636 213.366 23.8661C223.551 21.3685 233.832 27.6003 236.329 37.7859Z" fill="#4460FF"/>
<path d="M170.523 135.628C170.531 139.154 165.919 142.019 160.226 142.031C154.533 142.043 149.914 139.19 149.906 135.663C149.898 132.137 154.51 129.272 160.202 129.26C165.895 129.248 170.515 132.101 170.523 135.624V135.628Z" fill="#A16EB0"/>
<path d="M159.971 8.25999e-05C134.303 0.0479582 113.534 20.8898 113.582 46.5591C113.606 60.5826 119.841 73.146 129.679 81.6479C129.715 81.6838 136.952 89.4835 138.161 97.6583L138.384 102.665C138.46 104.305 139.106 105.869 140.211 107.086C140.311 107.193 140.411 107.297 140.515 107.397L179.811 107.325C179.914 107.225 180.014 107.122 180.114 107.014C181.215 105.797 181.857 104.229 181.925 102.589L182.132 97.5825C183.309 89.3997 190.522 81.5801 190.554 81.5402C200.36 73.0023 206.548 60.4151 206.524 46.3915C206.484 20.7222 185.639 -0.047793 159.971 8.25999e-05Z" fill="#FFF2BD"/>
<path d="M169.286 136.346L151.15 136.378C145.254 136.39 140.463 131.614 140.451 125.717L140.419 107.397L179.914 107.325L179.946 125.646C179.958 131.542 175.183 136.334 169.286 136.346Z" fill="#6C5E81"/>
<path d="M171.768 81.987C146.088 82.0349 125.231 61.2529 125.183 35.5676C125.163 25.1387 128.578 15.5078 134.359 7.74396C121.808 16.0863 113.546 30.3612 113.578 46.5591C113.602 60.5826 119.837 73.146 129.675 81.6479C129.711 81.6838 136.948 89.4835 138.157 97.6583L138.38 102.665C138.456 104.305 139.102 105.869 140.207 107.086C140.307 107.193 140.407 107.297 140.511 107.397L179.807 107.325C179.91 107.225 180.01 107.122 180.11 107.014C181.211 105.797 181.853 104.229 181.921 102.589L182.128 97.5825C183.305 89.3997 190.518 81.58 190.55 81.5402C193.032 79.3778 195.278 76.9601 197.256 74.3229C189.94 79.1504 181.183 81.971 171.764 81.987H171.768Z" fill="#E5CD87"/>
<path d="M159.768 69.0167L150.464 28.7533L142.402 52.1964L140.024 51.3785L150.939 19.641L160.434 60.7223L170.04 37.1475L179.009 52.2204L176.846 53.505L170.463 42.7769L159.768 69.0167Z" fill="white"/>
<path d="M148.21 113.437L147.987 113.461C146.822 113.585 145.773 112.739 145.653 111.57L139.082 49.2162C138.959 48.0512 139.804 47.0059 140.973 46.8822L141.197 46.8583C142.362 46.7346 143.407 47.5804 143.531 48.7494L150.101 111.103C150.225 112.268 149.379 113.318 148.21 113.437Z" fill="#6C5E81"/>
<path d="M172.279 113.405C173.507 113.529 174.604 112.635 174.728 111.407L181.051 49.2521C181.175 48.0233 180.281 46.9261 179.053 46.8024C177.824 46.6788 176.727 47.5724 176.603 48.8012L170.28 110.956C170.156 112.184 171.05 113.282 172.279 113.405Z" fill="#6C5E81"/>
<path d="M139.928 107.408L180.409 107.337C181.063 107.336 181.59 107.866 181.592 108.516L181.595 110.523C181.596 111.177 181.067 111.705 180.416 111.706L139.935 111.777C139.281 111.778 138.754 111.248 138.753 110.598L138.749 108.591C138.748 107.937 139.278 107.409 139.928 107.408Z" fill="#A16EB0"/>
<path d="M180.441 120.459L139.96 120.531C139.306 120.531 138.775 120.004 138.775 119.35V117.343C138.771 116.689 139.298 116.158 139.952 116.158L180.433 116.086C181.087 116.086 181.618 116.613 181.618 117.267V119.274C181.622 119.928 181.095 120.459 180.441 120.459Z" fill="#A16EB0"/>
<path d="M180.461 130.27L139.98 130.341C139.326 130.341 138.795 129.815 138.795 129.16V127.154C138.791 126.499 139.318 125.969 139.972 125.969L180.453 125.897C181.107 125.897 181.638 126.423 181.638 127.078V129.085C181.642 129.739 181.115 130.27 180.461 130.27Z" fill="#A16EB0"/>
<path d="M223.663 108.49C222.713 108.287 221.752 108.119 220.806 107.896C220.635 107.856 220.415 107.66 220.367 107.493C220.044 106.415 219.785 105.318 219.454 104.241C219.358 103.93 219.362 103.742 219.605 103.511C220.467 102.697 221.305 101.863 222.155 101.033C222.29 100.898 222.426 100.758 222.657 100.523C221.544 99.1584 220.443 97.8099 219.31 96.4295C218.109 97.2154 217 97.9136 215.927 98.6557C215.548 98.919 215.301 98.9589 214.878 98.6836C214.012 98.1171 213.067 97.6662 212.169 97.1436C212.029 97.0638 211.898 96.8444 211.894 96.6848C211.878 95.4839 211.858 94.2791 211.91 93.0782C211.938 92.5037 211.718 92.2842 211.192 92.2364C210.988 92.2164 210.793 92.1246 210.593 92.0648C209.68 91.9651 208.766 91.8613 207.848 91.7616C207.745 91.7815 207.645 91.8174 207.541 91.8174C206.472 91.8135 206.652 91.7496 206.44 92.7231C206.181 93.912 205.945 95.1049 205.73 96.1382C204.274 96.5731 202.909 96.98 201.505 97.3989C200.492 96.3616 199.427 95.2765 198.362 94.1833C196.798 95.073 195.485 96.206 194.28 97.5186C195.058 98.6996 195.812 99.8565 196.574 101.002C196.71 101.209 196.754 101.349 196.598 101.604C195.996 102.597 195.417 103.607 194.887 104.64C194.735 104.939 194.584 104.999 194.288 104.995C193.068 104.979 191.847 104.987 190.63 104.975C190.327 104.975 190.163 105.047 190.071 105.378C189.669 106.866 189.597 108.374 189.649 109.902C189.661 110.206 189.832 110.269 190.083 110.317C191.248 110.545 192.405 110.8 193.57 111.02C193.905 111.083 194.045 111.195 194.133 111.562C194.428 112.827 194.799 114.076 195.17 115.428C194.224 116.35 193.155 117.399 192.082 118.444C192.984 120.04 194.065 121.421 195.409 122.605C196.694 121.752 197.947 120.922 199.08 120.168C200.209 120.746 201.242 121.309 202.311 121.804C202.714 121.991 202.858 122.198 202.842 122.633C202.802 123.798 202.806 124.967 202.806 126.136C202.806 126.368 202.742 126.663 203.117 126.699C204.645 126.854 206.173 127.014 207.701 127.17C208.024 127.201 208.16 127.046 208.219 126.727C208.443 125.546 208.718 124.373 208.926 123.188C209.005 122.729 209.241 122.617 209.644 122.518C210.633 122.266 211.618 121.991 212.572 121.632C212.983 121.476 213.174 121.524 213.458 121.831C214.367 122.817 215.317 123.766 216.23 124.708C217.24 124.301 219.637 122.334 220.379 121.317C219.621 120.184 218.867 119.031 218.077 117.898C217.882 117.614 217.918 117.443 218.081 117.16C218.608 116.242 219.067 115.292 219.581 114.371C219.669 114.215 219.905 114.056 220.076 114.052C221.153 114.04 222.234 114.068 223.312 114.092C223.914 114.108 224.157 114.115 224.301 113.904L224.839 109.037C224.712 108.71 224.429 108.646 223.659 108.482L223.663 108.49ZM215.105 110.313C214.626 114.666 210.709 117.802 206.36 117.323C202.008 116.844 198.872 112.927 199.351 108.574C199.83 104.221 203.747 101.085 208.096 101.564C212.448 102.043 215.584 105.961 215.105 110.313Z" fill="#642D78"/>
</svg>
