<svg width="70" height="73" viewBox="0 0 70 73" fill="none" xmlns="http://www.w3.org/2000/svg">
<path d="M31.6332 32.5038C31.9153 32.7949 32.3114 32.9633 32.7161 32.9633C32.9127 32.9633 33.1036 32.9262 33.2831 32.852C33.8559 32.6208 34.2263 32.0699 34.2263 31.4505V1.51001C34.2263 0.676507 33.5481 0 32.7189 0C24.5264 0 16.7698 3.14847 10.8769 8.86596C10.5862 9.14855 10.4238 9.52534 10.4181 9.92782C10.4124 10.3331 10.5634 10.7128 10.8427 11.0039L31.6332 32.5038ZM31.2058 3.06284L31.2058 27.7197L14.0826 10.0135C18.8471 5.8545 24.9025 3.39395 31.2058 3.05998L31.2058 3.06284Z" fill="#4460FF"/>
<path d="M32.9013 37.8816C32.9412 37.442 32.7901 37.0081 32.4824 36.6912L11.6918 15.1886C11.4126 14.8974 11.0364 14.7347 10.6232 14.729C10.2129 14.7347 9.83391 14.886 9.5575 15.1543C3.39385 21.1373 0 29.1583 0 37.7417C0 44.2955 2.00041 50.5839 5.7875 55.9246C6.06961 56.3242 6.53124 56.5611 7.01852 56.5611C7.33198 56.5611 7.63403 56.4641 7.89049 56.2843L32.2715 38.9748C32.6334 38.7208 32.8614 38.3211 32.9013 37.8816ZM7.40607 52.9217C4.53369 48.3831 3.01486 43.1395 3.01486 37.7417C3.01486 30.5256 5.70486 23.6721 10.5976 18.4056L29.0885 37.5276L7.40322 52.9217H7.40607Z" fill="#4460FF"/>
<path d="M70 40.8616C69.9972 39.5286 69.9003 38.1385 69.715 36.7341C69.6495 36.2431 69.5726 35.7436 69.4757 35.2069C69.2734 34.1022 69.0198 33.0233 68.7206 31.9957C68.5952 31.5618 68.4555 31.1222 68.296 30.6484C67.9683 29.6835 67.5893 28.7244 67.1732 27.8053C66.9965 27.4085 66.8056 27.0061 66.6033 26.6036C66.173 25.7472 65.6943 24.888 65.1785 24.0545C64.9277 23.6521 64.7112 23.3152 64.4861 22.9841C63.8934 22.1107 63.255 21.2657 62.5911 20.4693C62.3147 20.1382 62.0411 19.8185 61.7733 19.5217C61.1578 18.8394 60.4966 18.1658 59.8042 17.5207C59.5164 17.2524 59.2029 16.9726 58.8781 16.69C58.1657 16.0735 57.422 15.4855 56.664 14.9403C56.2907 14.6691 55.9516 14.4322 55.6239 14.2181C54.8032 13.67 53.9683 13.1676 53.1447 12.7252C52.7771 12.5254 52.3867 12.3256 51.9792 12.1258C50.9762 11.6348 49.9332 11.1923 48.8817 10.8127C48.3831 10.6329 47.9642 10.4901 47.5652 10.3645C46.5422 10.0448 45.4822 9.76797 44.4079 9.54817C43.9064 9.44541 43.4048 9.35692 42.9147 9.27985C41.7464 9.10002 40.5268 8.98299 39.2929 8.93732C38.8968 8.92305 38.4494 8.90307 38.0106 8.90307C36.8508 8.90307 35.9076 9.84789 35.9076 11.0097V39.8626L12.4185 56.5412C11.9625 56.8609 11.6491 57.3604 11.5551 57.917C11.4639 58.4679 11.5921 59.0217 11.9198 59.4898L12.0338 59.6411C12.5524 60.3633 13.1252 61.0883 13.792 61.8619C14.0342 62.1416 14.3192 62.4699 14.6184 62.7896C15.231 63.4518 15.9064 64.1112 16.6216 64.7563C16.9237 65.0303 17.2428 65.3044 17.5677 65.5755C18.4453 66.3063 19.266 66.9286 20.0753 67.4795C20.3774 67.6821 20.6823 67.8734 20.9758 68.0532L21.1525 68.1617C21.9845 68.6783 22.8394 69.1607 23.6971 69.5946C24.0733 69.7802 24.4722 69.9771 24.8826 70.1627C25.7574 70.5594 26.6892 70.9248 27.7378 71.2816C28.2565 71.4557 28.6782 71.5927 29.0714 71.7069C30.1828 72.0323 31.2286 72.2864 32.2744 72.4776C32.83 72.5775 33.38 72.6546 33.7989 72.7117C35.1838 72.8972 36.563 72.9943 37.8824 72.9971C37.9052 72.9971 37.9878 73 38.0106 73C38.5634 73 39.139 72.9829 39.7289 72.9515C41.2449 72.8715 42.7722 72.6774 44.2683 72.3806C45.0177 72.2321 45.7757 72.0495 46.5907 71.8211C48.9188 71.1731 51.1586 70.2654 53.2473 69.1293C55.3418 67.9876 57.3251 66.5946 59.1431 64.9875C60.1604 64.0884 61.1236 63.1264 62.0041 62.1216C63.6141 60.2948 65.0047 58.3081 66.1417 56.2129C67.2758 54.1263 68.1791 51.8827 68.8317 49.5449C69.0596 48.7171 69.242 47.9578 69.3902 47.2185C69.6866 45.7228 69.8775 44.1956 69.963 42.6713C69.9943 42.0434 70.0086 41.4839 70.0086 40.9501V40.8645L70 40.8616ZM66.9424 42.5086C66.8683 43.8873 66.6916 45.2718 66.4238 46.6248C66.2898 47.2956 66.1246 47.9864 65.9194 48.7314C65.3295 50.8494 64.5117 52.8789 63.4859 54.7628C62.4572 56.6582 61.1976 58.4594 59.7358 60.1178C58.9408 61.0227 58.0688 61.8961 57.1427 62.7125C55.4928 64.1711 53.6947 65.4357 51.8026 66.4661C49.9104 67.4966 47.8844 68.3158 45.7785 68.9038C45.0405 69.1094 44.3538 69.2749 43.6756 69.4119C42.3163 69.6831 40.9343 69.8572 39.5665 69.9286C39.0022 69.96 38.5691 69.9714 38.1616 69.9714H38.0305C38.0077 69.9714 37.9536 69.9686 37.9308 69.9686C36.7083 69.9657 35.4517 69.8772 34.1978 69.7088C33.7875 69.6546 33.3002 69.5861 32.8186 69.5004C31.884 69.3263 30.9351 69.0979 29.9178 68.8011C29.5673 68.6983 29.1968 68.5813 28.7095 68.4157C27.7606 68.0903 26.9143 67.7592 26.125 67.4024C25.7574 67.2368 25.3926 67.057 25.0507 66.8886C24.2756 66.4947 23.5005 66.0579 22.7454 65.5898L22.5516 65.4699C22.2923 65.3101 22.0216 65.1445 21.7708 64.9704C21.047 64.4794 20.3033 63.9142 19.4997 63.2492C19.2062 63.0037 18.9184 62.7525 18.642 62.5041C18.0008 61.9275 17.3882 61.3281 16.8268 60.7201C16.5846 60.4604 16.3509 60.1949 16.0773 59.878C15.6556 59.3899 15.2766 58.9218 14.9261 58.4622L38.2927 41.875C38.6916 41.5924 38.9282 41.1328 38.9282 40.6418L38.9282 11.9459C39.0108 11.9488 39.0934 11.9516 39.1789 11.9573C40.2988 12.0002 41.4016 12.1058 42.4559 12.2685C42.9147 12.3398 43.3707 12.4226 43.8095 12.5111C44.7783 12.7109 45.7415 12.9593 46.6676 13.2504C47.0267 13.3617 47.4028 13.4902 47.8559 13.6557C48.8105 14.0011 49.7537 14.4008 50.657 14.8432C51.0275 15.0259 51.3837 15.2086 51.7142 15.3884C52.4551 15.788 53.2103 16.2419 53.9597 16.7414C54.2475 16.9327 54.5553 17.1439 54.8972 17.3922C55.5868 17.8889 56.2622 18.4227 56.9062 18.9793C57.2168 19.2476 57.4903 19.4931 57.7497 19.7357C58.3737 20.3181 58.975 20.9261 59.5335 21.5483C59.7786 21.8195 60.0265 22.1078 60.2744 22.4075C60.8842 23.1411 61.4627 23.9061 61.9927 24.6882C62.1978 24.988 62.3888 25.2905 62.6167 25.653C63.0812 26.4066 63.5172 27.183 63.9076 27.9594C64.0985 28.3391 64.2666 28.693 64.4234 29.047C64.7995 29.8805 65.1415 30.7483 65.4407 31.6246C65.586 32.0527 65.7114 32.4495 65.8254 32.8434C66.0989 33.7711 66.3297 34.7502 66.5093 35.7493C66.5919 36.206 66.666 36.6713 66.7258 37.1308C66.8911 38.4096 66.9795 39.6656 66.9823 40.873V40.953C66.9823 41.4496 66.9709 41.9606 66.9424 42.5115L66.9424 42.5086Z" fill="#4460FF"/>
</svg>
