<svg width="32" height="32" viewBox="0 0 32 32" fill="none" xmlns="http://www.w3.org/2000/svg">
<path d="M29.4771 31.9924C25.6372 31.7064 21.9957 30.7609 18.5525 29.1559C15.1093 27.551 12.0232 25.3818 9.29401 22.6486C6.56485 19.9154 4.41484 16.8326 2.84399 13.4001C1.27313 9.96772 0.329033 6.32871 0.0116886 2.48312C-0.0517803 1.81571 0.143227 1.23569 0.596713 0.743075C1.04988 0.250459 1.6165 0.00415039 2.29657 0.00415039H8.77039C9.30988 0.00415039 9.77796 0.171004 10.1746 0.504712C10.5713 0.83842 10.8331 1.25953 10.9601 1.76804L12.1025 6.82133C12.166 7.23449 12.1422 7.63176 12.0311 8.01314C11.92 8.39452 11.7376 8.71234 11.4837 8.96659L6.86633 13.6385C7.50102 14.8462 8.23091 16.0062 9.056 17.1186C9.8811 18.231 10.8009 19.2794 11.8155 20.264C12.7685 21.2181 13.7844 22.1004 14.8634 22.9108C15.9424 23.7213 17.0848 24.4443 18.2907 25.0799L23.0033 20.5034C23.2572 20.2491 23.5745 20.0664 23.9553 19.9551C24.3361 19.8439 24.7328 19.82 25.1454 19.8836L30.2387 20.9801C30.7782 21.139 31.2066 21.4171 31.524 21.8144C31.8413 22.2116 32 22.6804 32 23.2207V29.7042C32 30.3852 31.7461 30.9527 31.2384 31.4065C30.7306 31.8607 30.1435 32.056 29.4771 31.9924ZM5.29547 10.3014L8.62759 6.96435L7.81074 3.43658H3.53421C3.69288 4.64428 3.91502 5.81226 4.20063 6.94051C4.48624 8.06876 4.85119 9.18906 5.29547 10.3014ZM21.6704 26.7008C22.7843 27.1534 23.9196 27.5128 25.0763 27.7791C26.2331 28.0455 27.3985 28.2581 28.5727 28.417V24.1265L25.0026 23.3637L21.6704 26.7008Z" fill="#1C1B1F"/>
</svg>
