<svg width="17" height="18" viewBox="0 0 17 18" fill="none" xmlns="http://www.w3.org/2000/svg">
<path d="M8.5 17.5042C3.8 17.5042 0 13.7042 0 9.00415C0 4.30415 3.8 0.50415 8.5 0.50415C13.2 0.50415 17 4.30415 17 9.00415C17 13.7042 13.2 17.5042 8.5 17.5042ZM8.5 1.50415C4.35 1.50415 1 4.85415 1 9.00415C1 13.1542 4.35 16.5042 8.5 16.5042C12.65 16.5042 16 13.1542 16 9.00415C16 4.85415 12.65 1.50415 8.5 1.50415Z" fill="white"/>
<path d="M7.5 12.7042L3.15 8.35415L3.85 7.65415L7.5 11.3042L13.15 5.65415L13.85 6.35415L7.5 12.7042Z" fill="white"/>
</svg>
