<svg width="90" height="75" viewBox="0 0 90 75" fill="none" xmlns="http://www.w3.org/2000/svg">
<path d="M88.668 52.4985H82.6464L73.9149 14.5481C75.8733 13.6473 77.3764 11.6981 77.3764 9.44763C77.3764 6.29945 74.8162 3.74769 71.6572 3.74769C69.2467 3.74769 67.1418 5.248 66.3902 7.49846H54.6465C53.7421 3.29883 49.9783 0 45.4628 0C40.9474 0 37.1835 3.29883 36.2792 7.49846H24.5385C23.4845 5.248 21.3765 3.74769 18.9691 3.74769C15.8071 3.74769 13.2469 6.29945 13.2469 9.44763C13.2469 11.6981 14.6033 13.7979 16.7083 14.5481L7.97685 52.4985H1.95831C0.904308 52.4985 0 53.3993 0 54.4476V56.2492C0 66.6007 8.429 75 18.8163 75C29.2036 75 37.6326 66.6007 37.6326 56.2492V54.3001C37.6326 53.2486 36.7283 52.3509 35.6743 52.3509H29.6527L20.9213 14.4005C22.2747 13.801 23.4814 12.602 23.9336 11.1017H35.6743C36.5786 15.3013 40.3425 18.6001 44.8579 18.6001C49.3734 18.6001 53.1372 15.3013 54.0415 11.1017H65.7853C66.2375 12.602 67.4412 13.801 68.7946 14.4005L60.0631 52.3509H54.0415C52.9875 52.3509 52.0863 53.2517 52.0863 54.3001V56.2492C52.0863 66.6007 60.5153 75 70.9026 75C81.2899 75 89.7189 66.6007 89.7189 56.2492V54.3001C90.4705 53.3993 89.5692 52.4985 88.6649 52.4985H88.668ZM71.6572 7.49846C72.7112 7.49846 73.6155 8.39926 73.6155 9.44763C73.6155 10.496 72.7112 11.3968 71.6572 11.3968C70.6032 11.3968 69.702 10.496 69.702 9.44763C69.8517 8.39619 70.6032 7.49846 71.6572 7.49846ZM18.9691 7.49846C20.0231 7.49846 20.9274 8.39926 20.9274 9.44763C20.9274 10.496 20.0231 11.3968 18.9691 11.3968C17.9151 11.3968 17.0108 10.496 17.0108 9.44763C17.1605 8.39619 17.9151 7.49846 18.9691 7.49846ZM18.9691 71.2492C10.6898 71.2492 3.91663 64.4978 3.91663 56.2492H34.0246C34.0246 64.4978 27.2514 71.2492 18.9691 71.2492ZM11.8935 52.4985L18.9691 21.5977L26.0447 52.4985H11.8935ZM45.3131 15C42.1511 15 39.594 12.4482 39.594 9.30006C39.594 6.15188 42.1542 3.60012 45.3131 3.60012C48.4721 3.60012 51.0353 6.1488 51.0353 9.30006C51.0353 12.4513 48.4752 15 45.3131 15ZM71.6572 21.6007L78.7328 52.5015H64.5816L71.6572 21.6007ZM71.6572 71.2492C63.3779 71.2492 56.6017 64.4978 56.6017 56.2492H86.7097C86.7097 64.4978 79.9335 71.2492 71.6542 71.2492H71.6572Z" fill="#4460FF"/>
</svg>
