<svg width="37" height="34" viewBox="0 0 37 34" fill="none" xmlns="http://www.w3.org/2000/svg">
<path d="M16.6667 15.6708L3.33333 7.3375V24.0042H20V27.3375H3.33333C2.41667 27.3375 1.63194 27.0111 0.979167 26.3583C0.326389 25.7056 0 24.9208 0 24.0042V4.00417C0 3.0875 0.326389 2.30278 0.979167 1.65C1.63194 0.997226 2.41667 0.670837 3.33333 0.670837H30C30.9167 0.670837 31.7014 0.997226 32.3542 1.65C33.0069 2.30278 33.3333 3.0875 33.3333 4.00417V12.3375H30V7.3375L16.6667 15.6708ZM16.6667 12.3375L30 4.00417H3.33333L16.6667 12.3375ZM30 34.0042C28.1667 34.0042 26.5972 33.3514 25.2917 32.0458C23.9861 30.7403 23.3333 29.1708 23.3333 27.3375V19.8375C23.3333 18.6708 23.7361 17.6847 24.5417 16.8792C25.3472 16.0736 26.3333 15.6708 27.5 15.6708C28.6667 15.6708 29.6528 16.0736 30.4583 16.8792C31.2639 17.6847 31.6667 18.6708 31.6667 19.8375V27.3375H28.3333V19.8375C28.3333 19.6153 28.25 19.4208 28.0833 19.2542C27.9167 19.0875 27.7222 19.0042 27.5 19.0042C27.2778 19.0042 27.0833 19.0875 26.9167 19.2542C26.75 19.4208 26.6667 19.6153 26.6667 19.8375V27.3375C26.6667 28.2542 26.9931 29.0389 27.6458 29.6917C28.2986 30.3444 29.0833 30.6708 30 30.6708C30.9167 30.6708 31.7014 30.3444 32.3542 29.6917C33.0069 29.0389 33.3333 28.2542 33.3333 27.3375V20.6708H36.6667V27.3375C36.6667 29.1708 36.0139 30.7403 34.7083 32.0458C33.4028 33.3514 31.8333 34.0042 30 34.0042ZM3.33333 7.3375V4.00417V24.0042V7.3375Z" fill="#1C1B1F"/>
</svg>
