<svg width="80" height="31" viewBox="0 0 80 31" fill="none" xmlns="http://www.w3.org/2000/svg">
<path d="M0 20.6815H6.95182C7.36524 23.8394 9.61679 25.4409 13.115 25.4409C16.2379 25.4409 18.0696 24.2639 18.0696 22.238V22.0707C18.0696 20.0512 16.734 19.1637 11.156 18.1539C4.0388 16.8483 0.998569 14.1535 0.998569 9.22697V8.93112C0.998569 3.45788 5.83241 0.00415039 12.4917 0.00415039C19.1509 0.00415039 24.0674 3.41286 24.5699 9.69004H17.6181C17.3255 6.8666 15.4556 5.52241 12.3708 5.52241C9.28606 5.52241 7.95675 6.87303 7.95675 8.6417V8.77033C7.95675 10.494 8.78995 11.4651 14.4125 12.3913C21.1989 13.5297 25.0723 16.0959 25.0723 21.2797V21.6141C25.0723 27.4282 19.9905 31.0041 12.956 31.0041C5.12641 31.0041 0.419781 27.1324 0.00636031 20.688L0 20.6815Z" fill="#4460FF"/>
<path d="M27.1903 30.451V0.550831H40.1844C46.4748 0.550831 51.1814 3.92096 51.1814 10.2367V10.6548C51.1814 17.0156 46.5193 20.3407 40.1844 20.3407H34.1485V30.4446H27.1967L27.1903 30.451ZM34.1485 14.5716H39.4403C42.1053 14.5716 43.937 13.3946 43.937 10.6548V10.2367C43.937 7.49689 42.1053 6.31992 39.4403 6.31992H34.1485V14.5716Z" fill="#4460FF"/>
<path d="M52.2182 15.9222V15.0797C52.2182 6.28133 57.9234 0.00415039 66.8342 0.00415039C74.2884 0.00415039 78.9951 4.46764 79.8664 10.5326H72.7874C72.0814 7.67054 70.0779 5.85685 66.7069 5.85685C62.0003 5.85685 59.5007 9.56141 59.5007 15.0797V15.9222C59.5007 21.479 62.1212 25.145 66.9995 25.145C71.8779 25.145 73.9132 22.3216 74.1231 18.9965H66.3381V13.6905H80V30.451H74.9181L74.333 26.6629C72.8764 29.1905 69.709 30.9977 65.7147 30.9977C57.4273 30.9977 52.2245 24.7656 52.2245 15.9222H52.2182Z" fill="#4460FF"/>
</svg>
