<svg width="29" height="34" viewBox="0 0 29 34" fill="none" xmlns="http://www.w3.org/2000/svg">
<path d="M1.75 34.0042C1.27778 34.0042 0.868056 33.8306 0.520833 33.4833C0.173611 33.1361 0 32.7264 0 32.2542V27.8792C0 25.3792 0.777778 23.1708 2.33333 21.2542C3.88889 19.3375 5.88889 18.1153 8.33333 17.5875C7.22222 18.3653 6.36111 19.3444 5.75 20.525C5.13889 21.7056 4.83333 22.9764 4.83333 24.3375V32.2542C4.83333 32.5597 4.875 32.8653 4.95833 33.1708C5.04167 33.4764 5.18056 33.7542 5.375 34.0042H1.75ZM7.875 34.0042C7.40278 34.0042 6.99306 33.8306 6.64583 33.4833C6.29861 33.1361 6.125 32.7264 6.125 32.2542V24.3375C6.125 22.3931 6.8125 20.7403 8.1875 19.3792C9.5625 18.0181 11.2222 17.3375 13.1667 17.3375H21.0417C22.9861 17.3375 24.6389 18.0181 26 19.3792C27.3611 20.7403 28.0417 22.3931 28.0417 24.3375V27.0042C28.0417 28.9486 27.3611 30.6014 26 31.9625C24.6389 33.3236 22.9861 34.0042 21.0417 34.0042H7.875ZM14.0417 13.8375C12.2083 13.8375 10.6528 13.1986 9.375 11.9208C8.09722 10.6431 7.45833 9.0875 7.45833 7.25417C7.45833 5.42084 8.09722 3.86528 9.375 2.5875C10.6528 1.30973 12.2083 0.670837 14.0417 0.670837C15.875 0.670837 17.4306 1.30973 18.7083 2.5875C19.9861 3.86528 20.625 5.42084 20.625 7.25417C20.625 9.0875 19.9861 10.6431 18.7083 11.9208C17.4306 13.1986 15.875 13.8375 14.0417 13.8375Z" fill="#1C1B1F"/>
</svg>
