<svg width="126" height="50" viewBox="0 0 126 50" fill="none" xmlns="http://www.w3.org/2000/svg">
<path d="M0 33.0499H10.93C11.58 37.9599 15.12 40.4499 20.62 40.4499C25.53 40.4499 28.41 38.6199 28.41 35.4699V35.2099C28.41 32.0699 26.31 30.6899 17.54 29.1199C6.35 27.0899 1.57 22.8999 1.57 15.2399V14.7799C1.57 6.2699 9.17 0.899902 19.64 0.899902C30.11 0.899902 37.84 6.1999 38.63 15.9599H27.7C27.24 11.5699 24.3 9.4799 19.45 9.4799C14.6 9.4799 12.51 11.5799 12.51 14.3299V14.5299C12.51 17.2099 13.82 18.7199 22.66 20.1599C33.33 21.9299 39.42 25.9199 39.42 33.9799V34.4999C39.42 43.5399 31.43 49.0999 20.37 49.0999C8.06 49.0999 0.66 43.0799 0.01 33.0599L0 33.0499Z" fill="black"/>
<path d="M42.75 48.2399V1.7499H63.18C73.07 1.7499 80.47 6.9899 80.47 16.8099V17.4599C80.47 27.3499 73.14 32.5199 63.18 32.5199H53.69V48.2299H42.76L42.75 48.2399ZM53.69 23.5499H62.01C66.2 23.5499 69.08 21.7199 69.08 17.4599V16.8099C69.08 12.5499 66.2 10.7199 62.01 10.7199H53.69V23.5499Z" fill="black"/>
<path d="M82.1 25.6499V24.3399C82.1 10.6599 91.07 0.899902 105.08 0.899902C116.8 0.899902 124.2 7.8399 125.57 17.2699H114.44C113.33 12.8199 110.18 9.9999 104.88 9.9999C97.48 9.9999 93.55 15.7599 93.55 24.3399V25.6499C93.55 34.2899 97.67 39.9899 105.34 39.9899C113.01 39.9899 116.21 35.5999 116.54 30.4299H104.3V22.1799H125.78V48.2399H117.79L116.87 42.3499C114.58 46.2799 109.6 49.0899 103.32 49.0899C90.29 49.0899 82.11 39.3999 82.11 25.6499H82.1Z" fill="black"/>
</svg>
