<svg width="126" height="48" viewBox="0 0 126 48" fill="none" xmlns="http://www.w3.org/2000/svg">
<path d="M0 32.0166H10.9491C11.6003 36.9062 15.1464 39.3859 20.6561 39.3859C25.5747 39.3859 28.4597 37.5635 28.4597 34.4266V34.1676C28.4597 31.0407 26.356 29.6664 17.5707 28.1029C6.36111 26.0813 1.57275 21.9087 1.57275 14.2805V13.8224C1.57275 5.34772 9.18604 0 19.6744 0C30.1627 0 37.9062 5.27801 38.6976 14.9975H27.7484C27.2876 10.6257 24.3425 8.5444 19.484 8.5444C14.6255 8.5444 12.5319 10.6357 12.5319 13.3743V13.5734C12.5319 16.2423 13.8442 17.7461 22.6996 19.1801C33.3883 20.9427 39.4889 24.9162 39.4889 32.9427V33.4606C39.4889 42.4631 31.485 48 20.4056 48C8.0741 48 0.661154 42.005 0.0100175 32.0266L0 32.0166Z" fill="black"/>
<path d="M42.8248 47.1436V0.846473H63.2905C73.1978 0.846473 80.6107 6.06473 80.6107 15.844V16.4913C80.6107 26.3402 73.2679 31.4888 63.2905 31.4888H53.7839V47.1336H42.8348L42.8248 47.1436ZM53.7839 22.556H62.1185C66.3158 22.556 69.2008 20.7336 69.2008 16.4913V15.844C69.2008 11.6017 66.3158 9.77925 62.1185 9.77925H53.7839V22.556Z" fill="black"/>
<path d="M82.2436 24.6473V23.3427C82.2436 9.7195 91.2293 0 105.264 0C117.004 0 124.417 6.9112 125.79 16.3021H114.64C113.528 11.8705 110.373 9.06224 105.063 9.06224C97.6505 9.06224 93.7136 14.7983 93.7136 23.3427V24.6473C93.7136 33.2515 97.8408 38.9278 105.524 38.9278C113.208 38.9278 116.413 34.556 116.744 29.4075H104.482V21.1917H126V47.1436H117.996L117.074 41.278C114.78 45.1917 109.792 47.99 103.501 47.99C90.4479 47.99 82.2536 38.3402 82.2536 24.6473H82.2436Z" fill="black"/>
</svg>
