<svg width="201" height="78" viewBox="0 0 201 78" fill="none" xmlns="http://www.w3.org/2000/svg">
<path d="M7.54073 11.6541C8.06047 11.1645 9.08712 10.0436 9.08712 8.79384C9.08712 7.54409 8.06047 6.42319 7.54073 5.9336C7.02099 6.42319 5.99434 7.54409 5.99434 8.79384C5.99434 10.0436 7.02099 11.1645 7.54073 11.6541Z" fill="#4460FF"/>
<path d="M5.48101 24.3448C5.72484 23.6748 6.14192 22.206 5.58368 21.0916C5.02544 19.9707 3.60096 19.436 2.9208 19.2363C2.67697 19.9062 2.2599 21.375 2.81814 22.4895C3.37638 23.6104 4.80086 24.1451 5.48101 24.3448Z" fill="#4460FF"/>
<path d="M5.67351 25.3884C5.67351 25.3884 5.73126 25.3948 5.76334 25.3948C5.943 25.3948 6.11625 25.2917 6.19967 25.1242C6.251 25.0212 7.40598 22.5732 6.4435 20.6535C5.48101 18.7338 2.83739 18.2056 2.72189 18.1862C2.50373 18.1411 2.29198 18.2507 2.19573 18.4504C2.1444 18.5534 0.995836 21.0014 1.9519 22.9211C2.91439 24.8408 5.55801 25.369 5.66709 25.3884H5.67351ZM2.9208 19.2298C3.60096 19.4295 5.02544 19.9707 5.58368 21.0851C6.14192 22.206 5.72484 23.6684 5.48101 24.3383C4.80086 24.1386 3.37638 23.5975 2.81814 22.483C2.2599 21.3621 2.67697 19.8998 2.9208 19.2298Z" fill="black"/>
<path d="M1.16267 30.7481C0.675008 31.9012 1.18833 33.3378 1.47708 33.9884C2.1444 33.7436 3.53038 33.1123 4.01804 31.9592C4.50569 30.8061 3.99237 29.376 3.70362 28.7189C3.0363 28.9637 1.65032 29.595 1.16267 30.7417V30.7481Z" fill="#4460FF"/>
<path d="M6.32158 38.369C5.17943 37.8665 3.74212 38.3625 3.08763 38.6395C3.32505 39.3159 3.9282 40.7074 5.07035 41.2163C6.2125 41.7188 7.64981 41.2228 8.3043 40.9457C8.06688 40.2693 7.46373 38.8779 6.32158 38.369Z" fill="#4460FF"/>
<path d="M4.26828 49.5458C3.50471 50.5379 3.63946 52.0582 3.75496 52.7603C4.46078 52.6959 5.95584 52.4318 6.71941 51.4462C7.48298 50.4541 7.34823 48.9402 7.23273 48.2316C6.52691 48.296 5.02544 48.5537 4.26828 49.5458Z" fill="#4460FF"/>
<path d="M21.9972 44.2505C21.2337 45.2425 21.3684 46.7564 21.4839 47.465C22.1897 47.4006 23.6912 47.1429 24.4484 46.1509C25.2119 45.1588 25.0772 43.6385 24.9617 42.9363C24.2559 43.0007 22.7608 43.2584 21.9972 44.2505Z" fill="#4460FF"/>
<path d="M28.863 26.6188C29.6265 25.6267 29.4918 24.1064 29.3763 23.4042C28.6705 23.4687 27.1754 23.7263 26.4118 24.7184C25.6483 25.7105 25.783 27.2308 25.8985 27.933C26.6043 27.8685 28.1058 27.6109 28.863 26.6188Z" fill="#4460FF"/>
<path d="M29.4661 15.5772C28.2213 15.5772 27.1048 16.608 26.6172 17.1298C27.1048 17.6516 28.2213 18.6823 29.4661 18.6823C30.7109 18.6823 31.8274 17.6516 32.3151 17.1298C31.8338 16.608 30.7109 15.5772 29.4661 15.5772Z" fill="#4460FF"/>
<path d="M20.0723 35.0256C20.3289 35.6891 20.9898 37.0677 22.1448 37.5251C23.2998 37.9889 24.7243 37.4413 25.3659 37.1385C25.1093 36.475 24.4484 35.1029 23.2934 34.639C22.1384 34.1752 20.7203 34.7164 20.0723 35.0256Z" fill="#4460FF"/>
<path d="M19.2381 34.3685C19.052 34.478 18.9622 34.7035 19.02 34.9161C19.052 35.0256 19.8092 37.6281 21.7919 38.4205C22.2346 38.6009 22.6966 38.6653 23.1458 38.6653C24.705 38.6653 26.1295 37.8278 26.2065 37.7827C26.3926 37.6732 26.4824 37.4478 26.4247 37.2352C26.3926 37.1257 25.6354 34.5231 23.6527 33.7307C21.6636 32.9384 19.3344 34.3041 19.2381 34.362V34.3685ZM25.3659 37.1385C24.7243 37.4413 23.3062 37.9889 22.1448 37.5251C20.9898 37.0612 20.3289 35.6891 20.0723 35.0256C20.7139 34.7228 22.132 34.1752 23.2934 34.639C24.4548 35.1029 25.1093 36.475 25.3659 37.1385Z" fill="black"/>
<path d="M10.7939 31.4245C10.7041 32.6742 11.6537 33.866 12.135 34.3878C12.6868 33.9369 13.7905 32.8933 13.8803 31.6435C13.9701 30.3938 13.0269 29.202 12.5392 28.6802C11.9874 29.1312 10.8838 30.1748 10.7939 31.4245Z" fill="#4460FF"/>
<path d="M39.4374 19.4295C40.1368 18.3924 39.9123 16.885 39.7583 16.1892C39.0589 16.2987 37.5766 16.6466 36.8772 17.6838C36.1778 18.7209 36.4024 20.2283 36.5564 20.9241C37.2622 20.8146 38.738 20.4667 39.4374 19.4295Z" fill="#4460FF"/>
<path d="M20.8743 6.15263C20.6369 4.92221 19.4114 4.02033 18.8082 3.6467C18.3911 4.22647 17.5955 5.52775 17.8393 6.75173C18.0767 7.98215 19.3023 8.87758 19.9054 9.25766C20.3225 8.67788 21.1182 7.38304 20.8743 6.15263Z" fill="#4460FF"/>
<path d="M34.7919 9.16747C35.0934 7.94994 34.3619 6.61645 33.977 6.01734C33.3545 6.36521 32.0905 7.20267 31.7889 8.4202C31.4873 9.63774 32.2188 10.9712 32.6038 11.5703C33.2262 11.2225 34.4967 10.385 34.7919 9.17391V9.16747Z" fill="#4460FF"/>
<path d="M49.5949 4.07187C50.5381 3.24729 50.7049 1.73343 50.7306 1.01837C50.0248 0.941065 48.504 0.902413 47.5672 1.72054C46.624 2.53868 46.4572 4.05254 46.4315 4.7676C47.1373 4.83846 48.658 4.88356 49.5949 4.06542V4.07187Z" fill="#4460FF"/>
<path d="M47.8431 13.5222C48.5554 13.4643 50.0504 13.2324 50.8268 12.2532C51.6032 11.274 51.4942 9.75369 51.3915 9.04507C50.6793 9.10305 49.1842 9.33496 48.4014 10.3141C47.625 11.2933 47.7341 12.8136 47.8367 13.5222H47.8431Z" fill="#4460FF"/>
<path d="M47.6571 9.71504C46.3224 11.3964 46.9512 14.0312 46.9833 14.1407C47.0347 14.3533 47.2271 14.5014 47.4389 14.5079H47.4774C47.8303 14.5079 50.3199 14.4499 51.584 12.8587C52.9186 11.1774 52.2898 8.54904 52.2577 8.43309C52.2064 8.2205 52.0139 8.07233 51.8022 8.06589C51.6931 8.06589 48.9917 8.04013 47.6571 9.71504ZM51.3979 9.04507C51.5006 9.75369 51.6097 11.274 50.8333 12.2532C50.0569 13.2324 48.5554 13.4643 47.8496 13.5222C47.7469 12.8136 47.6378 11.2933 48.4142 10.3141C49.1906 9.33496 50.6921 9.10305 51.4043 9.04507H51.3979Z" fill="black"/>
<path d="M56.3002 25.9231C57.0766 24.9439 56.9675 23.4236 56.8648 22.715C56.1526 22.7729 54.6575 23.0048 53.8747 23.984C53.0983 24.9632 53.2074 26.4835 53.31 27.1921C54.0223 27.1341 55.5173 26.9022 56.2937 25.9231H56.3002Z" fill="#4460FF"/>
<path d="M45.4241 24.3963C46.2197 25.3626 47.7212 25.5687 48.4335 25.6138C48.5297 24.9052 48.6067 23.3849 47.8175 22.4186C47.0218 21.4523 45.5203 21.2462 44.8081 21.2011C44.7183 21.9097 44.6349 23.43 45.4241 24.3963Z" fill="#4460FF"/>
<path d="M38.43 29.0667C37.4291 29.814 37.1467 31.315 37.0697 32.0236C37.7691 32.1524 39.2834 32.3071 40.278 31.5598C41.279 30.8125 41.5613 29.3115 41.6383 28.6029C40.9389 28.4741 39.431 28.3195 38.43 29.0667Z" fill="#4460FF"/>
<path d="M37.8526 28.2873C36.1393 29.5692 36.0752 32.2748 36.0752 32.3908C36.0752 32.6098 36.2163 32.8031 36.4281 32.8611C36.4858 32.8804 37.2494 33.0865 38.2119 33.0865C39.0589 33.0865 40.0534 32.9255 40.8555 32.3264C42.5687 31.0444 42.6329 28.3324 42.6329 28.2228C42.6329 28.0038 42.4917 27.8106 42.28 27.7526C42.1709 27.7204 39.5722 27.0053 37.8526 28.2873ZM40.278 31.5598C39.277 32.3071 37.7691 32.1524 37.0697 32.0236C37.1467 31.315 37.4291 29.814 38.43 29.0667C39.431 28.3195 40.9389 28.4741 41.6383 28.6029C41.5613 29.3115 41.279 30.8061 40.278 31.5598Z" fill="black"/>
<path d="M56.0563 36.9839C57.2177 36.5265 57.8786 35.148 58.1353 34.4844C57.4936 34.1752 56.0756 33.6277 54.9142 34.0915C53.7528 34.5489 53.0919 35.921 52.8352 36.591C53.4769 36.9002 54.8949 37.4413 56.0563 36.9839Z" fill="#4460FF"/>
<path d="M55.0233 42.7753C55.0104 43.4903 55.1003 45.0106 55.9986 45.8803C56.8969 46.75 58.4112 46.7822 59.1234 46.7435C59.1363 46.0285 59.0465 44.5082 58.1481 43.6385C57.2498 42.7688 55.7355 42.7366 55.0233 42.7753Z" fill="#4460FF"/>
<path d="M54.4907 41.8541C54.2725 41.8863 54.1057 42.0602 54.0865 42.2792C54.0736 42.3952 53.7913 45.0879 55.3313 46.576C56.3387 47.5488 57.8209 47.7227 58.7641 47.7227C59.271 47.7227 59.6175 47.6712 59.656 47.6647C59.8742 47.6325 60.041 47.4586 60.0603 47.2396C60.0731 47.1236 60.3554 44.4309 58.8155 42.9428C57.2755 41.4547 54.6062 41.8347 54.4907 41.8541ZM55.9986 45.8739C55.1003 45.0042 55.0104 43.4839 55.0233 42.7688C55.7355 42.7302 57.2498 42.7688 58.1481 43.6321C59.0465 44.5017 59.1363 46.022 59.1234 46.7371C58.4112 46.7757 56.8969 46.7371 55.9986 45.8739Z" fill="black"/>
<path d="M43.9932 48.135C44.6028 49.2301 46.0401 49.7068 46.7331 49.8743C46.9512 49.1979 47.3041 47.7163 46.701 46.6211C46.0914 45.526 44.6541 45.0493 43.9611 44.8818C43.743 45.5646 43.39 47.0463 43.9996 48.135H43.9932Z" fill="#4460FF"/>
<path d="M62.1072 26.5544C61.8762 26.4191 61.581 26.4964 61.4462 26.7219C61.4142 26.7734 58.238 32.0494 51.1605 32.7387C51.0193 32.7515 50.8846 32.7644 50.7434 32.7773C51.0065 31.8239 51.6995 29.93 53.233 28.1649C54.0095 28.1198 55.9729 27.8814 57.0509 26.5222C58.3855 24.8408 57.7567 22.206 57.7246 22.0965C57.6733 21.8839 57.4808 21.7358 57.2691 21.7293C57.16 21.7293 54.4586 21.7036 53.124 23.3785C51.9626 24.8408 52.2962 27.0311 52.4181 27.6431C50.6151 29.7625 49.9349 31.9978 49.7296 32.8611C49.2933 32.8997 48.857 32.9319 48.4335 32.9706C42.4981 33.4537 38.167 33.8209 35.0357 38.4398C33.9449 35.4121 32.8284 33.7114 32.4434 33.1767C33.4059 26.4062 38.4878 23.4622 43.8135 21.5361C43.7494 22.483 43.82 23.9389 44.6926 25.0019C45.9182 26.4964 48.2281 26.5801 48.7607 26.5801C48.8185 26.5801 48.857 26.5801 48.8634 26.5801C49.0815 26.5737 49.2676 26.4191 49.3189 26.2065C49.3446 26.097 49.9285 23.4493 48.5682 21.7937C48.0613 21.1753 47.3619 20.7952 46.6817 20.5698C52.6556 18.5341 55.6906 13.606 55.8189 13.387C55.9537 13.1615 55.8831 12.8652 55.6585 12.7234C55.4275 12.5882 55.1323 12.659 54.9976 12.8845C54.9655 12.936 51.8984 17.9221 46.0465 19.7645C45.5909 19.9062 45.1289 20.0609 44.6798 20.2155C44.6669 20.2155 44.6541 20.2155 44.6413 20.2155C43.8585 18.4697 41.0031 11.0356 46.2518 5.71457C46.4764 5.74034 46.7844 5.76611 47.1373 5.76611C48.0677 5.76611 49.3189 5.58573 50.2365 4.78693C51.8535 3.37613 51.7059 0.670502 51.6995 0.554546C51.6867 0.335519 51.5262 0.155144 51.3145 0.11005C51.2054 0.0907241 48.5554 -0.431076 46.9384 0.979717C45.4498 2.281 45.4562 4.67097 45.469 5.12835C39.9957 10.7973 42.8446 18.5341 43.7301 20.544C41.9014 21.2011 40.1433 21.9677 38.552 22.9082C38.2568 22.7858 37.6023 22.4702 36.8452 21.8453C37.7371 21.6907 39.3733 21.2397 40.2395 19.9578C41.4394 18.1798 40.6117 15.603 40.5796 15.4935C40.509 15.2873 40.3037 15.1521 40.0919 15.165C39.9764 15.1714 37.2879 15.3518 36.088 17.1298C35.3758 18.1798 35.3758 19.5068 35.5041 20.4474C34.2914 18.8691 33.1813 16.3825 33.1043 12.5302C33.1043 12.4851 33.0915 12.4464 33.0786 12.4078C33.8294 11.9891 35.3437 10.9777 35.7351 9.39938C36.2484 7.31218 34.5865 5.17989 34.5159 5.0897C34.3812 4.91577 34.1438 4.86423 33.9449 4.94798C33.8422 4.99307 31.3782 6.09465 30.8585 8.18185C30.3388 10.269 32.0071 12.3949 32.0777 12.4851C32.0969 12.5109 32.1226 12.5173 32.1418 12.5366C32.1418 12.5366 32.1418 12.5431 32.1418 12.5495C32.1675 13.825 32.3022 14.9588 32.514 15.9702C31.8146 15.3453 30.7238 14.6045 29.4661 14.6045C27.3294 14.6045 25.6675 16.7432 25.6033 16.8334C25.4686 17.0074 25.4686 17.2457 25.6033 17.4196C25.6739 17.5098 27.3358 19.6421 29.4725 19.6421C31.0895 19.6421 32.4306 18.4182 33.0209 17.7868C34.2336 21.2526 36.4024 22.8696 37.5895 23.5138C34.4069 25.6525 32.0584 28.6545 31.4617 33.2411C31.4424 33.37 31.4809 33.4988 31.5643 33.6019C31.6542 33.7178 40.6694 45.6613 34.0668 73.7869C31.1344 72.6016 28.1122 71.6547 25.0323 70.9589C31.3782 61.341 32.9824 48.4378 31.7183 39.7797C31.128 35.7213 30.1783 32.0107 26.0397 28.8799C26.9123 28.7962 28.6576 28.4612 29.6329 27.1921C30.9419 25.4914 30.2682 22.8696 30.2361 22.76C30.1783 22.5475 29.9923 22.3993 29.7741 22.3993C29.6394 22.3993 26.9572 22.4251 25.6547 24.1129C24.6409 25.427 24.8205 27.2888 24.9617 28.1198C23.2549 27.0117 21.0861 25.981 18.327 25.0469C17.7431 24.8472 17.1912 24.6282 16.6587 24.3834C20.592 21.8582 22.6902 18.3022 23.7618 14.7655C23.781 14.7398 23.7939 14.7205 23.8067 14.6947C23.8388 14.6238 23.8516 14.5465 23.8452 14.4692C24.2879 12.9296 24.5382 11.3964 24.6665 9.96628C30.4607 9.23833 30.9291 2.28744 30.9355 2.21658C30.9483 1.95246 30.7494 1.72054 30.4799 1.70766C30.1976 1.68833 29.9859 1.89448 29.973 2.1586C29.9602 2.41628 29.5431 8.20762 24.7371 8.96777C24.936 5.0897 24.2879 2.14572 24.2751 2.0813C24.2174 1.82362 23.9543 1.65612 23.6976 1.72054C23.441 1.77852 23.2741 2.04264 23.3383 2.30032C23.3575 2.39051 24.5767 7.93061 23.056 13.7348C22.3694 13.2388 21.1887 12.1179 20.5535 10.0049C20.9834 9.45092 22.1833 7.72447 21.8368 5.95292C21.4262 3.8464 19.02 2.62242 18.9173 2.57089C18.7248 2.47426 18.4874 2.51935 18.3398 2.68684C18.2628 2.77059 16.4982 4.81914 16.9089 6.92566C17.2554 8.67788 18.9815 9.81811 19.6039 10.1789C20.3931 12.9038 22.0229 14.2309 22.7801 14.714C21.6957 18.1411 19.591 21.549 15.6448 23.8938C12.8857 22.4186 10.8003 20.2992 9.44003 17.542C8.1503 14.9266 8.01555 12.6719 8.00914 12.5302C8.52246 12.0921 10.0624 10.6105 10.0624 8.78095C10.0624 6.63577 7.93214 4.9673 7.84231 4.89644C7.66906 4.76116 7.43165 4.76116 7.2584 4.89644C7.16857 4.9673 5.03827 6.62933 5.03827 8.78095C5.03827 10.5654 6.50124 12.0148 7.05307 12.4915C7.05307 12.5109 7.04024 12.5302 7.04024 12.5495C7.04024 12.6397 7.44448 20.7244 15.4074 24.8601C15.4138 24.8601 15.4203 24.8666 15.4267 24.873C15.8566 25.0985 16.3122 25.3046 16.7934 25.5043C16.0298 25.9617 14.7144 26.651 12.9435 27.147C10.2998 27.8943 6.07775 28.3581 1.00225 26.3418C0.752007 26.2452 0.476094 26.3676 0.379846 26.6123C0.283598 26.8571 0.405512 27.1406 0.649342 27.2372C1.41291 27.54 2.16365 27.7912 2.88872 27.9909C2.02249 28.3774 0.803339 29.1118 0.277181 30.3551C-0.556972 32.3328 0.752007 34.697 0.809756 34.8001C0.899587 34.9547 1.06 35.0449 1.22683 35.0449C1.26533 35.0449 1.31025 35.0449 1.34875 35.032C1.45783 35.0062 4.06295 34.3041 4.90352 32.3264C5.51309 30.8834 4.98052 29.2342 4.62119 28.4097C5.88525 28.648 7.07873 28.7511 8.20163 28.7511C9.32453 28.7511 10.3576 28.648 11.3137 28.487C10.6592 29.144 9.91485 30.149 9.83144 31.3536C9.67744 33.4924 11.6794 35.309 11.7692 35.3863C11.8591 35.4636 11.9746 35.5087 12.0901 35.5087C12.1799 35.5087 12.2761 35.4829 12.3531 35.4314C12.4494 35.367 14.6888 33.8596 14.8428 31.7144C14.9583 30.1103 13.8675 28.6931 13.2707 28.0489C15.7154 27.3467 17.3452 26.3289 17.9099 25.9424C17.9484 25.9553 17.9805 25.9681 18.019 25.981C28.433 29.5048 29.9538 34.3814 30.7623 39.9279C30.974 41.3709 31.0895 42.975 31.1216 44.6692C29.7099 43.5741 24.936 40.3015 18.975 40.7525C17.0437 40.9007 15.1893 41.4289 13.4183 42.3243C12.8216 41.9571 11.211 41.081 9.26678 40.7654C9.02937 40.0245 8.29146 38.1693 6.70657 37.4735C4.74952 36.6103 2.3754 37.8922 2.27273 37.9502C2.08023 38.0533 1.98399 38.2788 2.03532 38.4914C2.06098 38.6009 2.72831 41.2292 4.68536 42.0924C5.17302 42.305 5.69276 42.3888 6.19325 42.3888C7.43165 42.3888 8.56096 41.8927 8.95879 41.693C10.4025 41.8992 11.6794 42.4725 12.4301 42.8719C10.6463 43.9413 8.94595 45.3972 7.34823 47.2396C6.61033 47.2847 4.58911 47.5423 3.51113 48.9467C2.20215 50.6474 2.87589 53.2692 2.90797 53.3788C2.96572 53.5913 3.1518 53.7395 3.36996 53.7395C3.49829 53.7395 6.18042 53.7202 7.48298 52.0195C8.59304 50.5765 8.27221 48.47 8.13747 47.8C11.3971 44.0637 15.0609 42.0151 19.0392 41.7123C20.7268 41.5835 22.3181 41.7832 23.7618 42.1504C22.9084 42.363 21.8946 42.7946 21.2337 43.6514C19.9247 45.3521 20.5984 47.9739 20.6305 48.0835C20.6883 48.296 20.8743 48.4442 21.0925 48.4442C21.2272 48.4442 23.9094 48.4184 25.2119 46.7306C26.168 45.4809 26.0653 43.7416 25.9242 42.859C28.9271 44.0508 30.8842 45.7193 30.9163 45.745C30.974 45.7966 31.0446 45.8288 31.1216 45.8417C31.0574 53.6815 29.0105 63.3703 24.0185 70.7463C20.0659 69.9218 16.0298 69.4902 11.9682 69.4902C10.7426 69.4902 9.45286 69.5417 7.9193 69.6512C7.65623 69.6705 7.45731 69.9024 7.47014 70.1666C7.48939 70.4307 7.70756 70.6304 7.98347 70.6175C9.49778 70.5144 10.7618 70.4629 11.9682 70.4629C21.9395 70.4629 31.7825 73.0461 40.4384 77.9356C40.5154 77.9807 40.5924 78 40.6758 78C40.8427 78 41.0095 77.9098 41.0929 77.7552C41.2212 77.5233 41.1442 77.227 40.9068 77.0981C38.9819 76.0094 36.9927 75.0367 34.9587 74.1799C37.8654 61.8822 37.8718 52.6637 36.8965 46.1058C39.1936 46.0156 41.1763 45.6548 42.8831 45.133C42.6586 46.0542 42.5046 47.4521 43.1462 48.6117C44.1857 50.4928 46.855 50.905 46.9641 50.9179C46.9897 50.9179 47.009 50.9179 47.0347 50.9179C47.2272 50.9179 47.4004 50.8084 47.4774 50.628C47.5223 50.525 48.5746 48.0255 47.5287 46.1509C46.9833 45.1717 46.0016 44.5919 45.1674 44.2569C49.7938 42.1375 51.8086 38.807 52.4566 37.48C53.0149 37.7441 53.9966 38.1242 55.0554 38.1242C55.5045 38.1242 55.9601 38.0533 56.4028 37.8794C58.392 37.087 59.1491 34.4909 59.1812 34.3814C59.239 34.1688 59.1555 33.9433 58.963 33.8338C58.8668 33.7758 56.544 32.4037 54.5484 33.1896C52.7903 33.8853 51.9947 35.9983 51.8086 36.5523C51.8086 36.5652 51.7957 36.5716 51.7893 36.5845C51.7829 36.6039 51.0578 38.6331 48.8634 40.6881C47.7212 41.7574 46.0401 42.9556 43.6724 43.8382C43.5376 43.8318 43.4093 43.8768 43.313 43.9606C41.5357 44.5855 39.3989 45.0364 36.8195 45.133C36.7874 45.133 36.7617 45.1459 36.7361 45.1524C36.3639 42.9621 35.8891 41.0939 35.3822 39.5221C35.4463 39.4834 35.5041 39.4383 35.549 39.3675C38.4493 34.7486 42.6586 34.4071 48.4912 33.9304C49.3703 33.8596 50.2878 33.7823 51.2375 33.6921C58.8219 32.9577 62.1264 27.4369 62.2611 27.205C62.3959 26.9731 62.3189 26.6768 62.0879 26.5415L62.1072 26.5544ZM53.8747 23.9905C54.6511 23.0113 56.1526 22.7794 56.8648 22.7214C56.9675 23.43 57.0766 24.9503 56.3002 25.9295C55.5238 26.9087 54.0223 27.1406 53.3165 27.1986C53.2138 26.4899 53.1047 24.9696 53.8811 23.9905H53.8747ZM47.5608 1.72054C48.504 0.895971 50.0184 0.941065 50.7242 1.01837C50.6985 1.73343 50.5317 3.24729 49.5884 4.07187C48.6516 4.89 47.1309 4.8449 46.4251 4.77404C46.4507 4.05898 46.6176 2.54512 47.5608 1.72699V1.72054ZM48.4335 25.6138C47.7212 25.5687 46.2197 25.3626 45.4241 24.3963C44.6284 23.43 44.7119 21.9097 44.8081 21.2011C45.5203 21.2462 47.0218 21.4523 47.8175 22.4186C48.6131 23.3849 48.5297 24.9052 48.4335 25.6138ZM29.4661 18.6887C28.2213 18.6887 27.1048 17.658 26.6172 17.1362C27.0984 16.6144 28.2149 15.5837 29.4661 15.5837C30.7109 15.5837 31.8274 16.6144 32.3151 17.1362C31.8338 17.658 30.7109 18.6887 29.4661 18.6887ZM36.8772 17.6838C37.5766 16.6466 39.0525 16.2987 39.7583 16.1892C39.9187 16.885 40.1433 18.3924 39.4374 19.4295C38.738 20.4667 37.2622 20.8146 36.5564 20.9241C36.396 20.2283 36.1714 18.7209 36.8772 17.6838ZM31.7889 8.41376C32.0905 7.19623 33.3545 6.35877 33.977 6.0109C34.3619 6.61001 35.0934 7.94994 34.7919 9.16103C34.4903 10.3721 33.2262 11.216 32.6038 11.5574C32.2188 10.9583 31.4873 9.62485 31.7889 8.40732V8.41376ZM26.4118 24.7184C27.1754 23.7263 28.6705 23.4687 29.3763 23.4042C29.4918 24.1064 29.6265 25.6267 28.863 26.6188C28.0994 27.6109 26.6043 27.8685 25.8985 27.933C25.783 27.2308 25.6483 25.7105 26.4118 24.7184ZM17.8393 6.75173C17.6019 5.52131 18.3911 4.22647 18.8082 3.6467C19.4114 4.02677 20.6369 4.92865 20.8743 6.15263C21.1182 7.38304 20.3225 8.67788 19.9054 9.25766C19.3023 8.87758 18.0767 7.9757 17.8393 6.75173ZM5.98792 8.79384C5.98792 7.54409 7.01457 6.42319 7.53431 5.9336C8.05405 6.42319 9.0807 7.54409 9.0807 8.79384C9.0807 10.0436 8.05405 11.1645 7.53431 11.6541C7.01457 11.1645 5.98792 10.0436 5.98792 8.79384ZM4.01804 31.9592C3.53038 33.1123 2.15082 33.7436 1.47708 33.9884C1.18833 33.3378 0.675008 31.9012 1.16267 30.7481C1.65032 29.595 3.02989 28.9701 3.70362 28.7253C3.99237 29.376 4.50569 30.8125 4.01804 31.9656L4.01804 31.9592ZM12.135 34.3878C11.6537 33.866 10.7041 32.6742 10.7939 31.4245C10.8838 30.1748 11.9874 29.1312 12.5392 28.6802C13.0205 29.202 13.9701 30.3938 13.8803 31.6435C13.7905 32.8933 12.6868 33.9369 12.135 34.3878ZM5.07035 41.2099C3.9282 40.7074 3.31863 39.3095 3.08763 38.6331C3.74212 38.3496 5.17943 37.86 6.32158 38.3625C7.46373 38.865 8.0733 40.2629 8.3043 40.9393C7.64981 41.2228 6.21892 41.7123 5.07035 41.2099ZM6.71941 51.4397C5.95584 52.4318 4.46078 52.6895 3.75496 52.7539C3.63946 52.0517 3.50471 50.5314 4.26828 49.5393C5.03185 48.5473 6.52691 48.2896 7.23273 48.2252C7.34823 48.9274 7.48298 50.4477 6.71941 51.4397ZM24.4484 46.1509C23.6848 47.1429 22.1897 47.4006 21.4839 47.465C21.3684 46.7629 21.2337 45.2425 21.9972 44.2505C22.7608 43.2584 24.2559 43.0007 24.9617 42.9363C25.0772 43.6385 25.2119 45.1588 24.4484 46.1509ZM46.6946 46.6276C47.3041 47.7227 46.9448 49.2044 46.7267 49.8808C46.0337 49.7068 44.5964 49.2366 43.9868 48.1414C43.3772 47.0463 43.7301 45.5646 43.9483 44.8882C44.6413 45.0622 46.0786 45.5389 46.6882 46.6276H46.6946ZM54.9142 34.0915C56.0756 33.6341 57.4936 34.1752 58.1353 34.4844C57.8786 35.148 57.2177 36.5201 56.0563 36.9839C54.9014 37.4413 53.4833 36.9002 52.8352 36.591C53.0983 35.9274 53.7528 34.5553 54.9142 34.0915Z" fill="black"/>
<path d="M110.616 25.8844H94.2605V20.8468C94.2605 18.4955 94.0488 17.0009 93.6317 16.3567C93.2146 15.7125 92.5152 15.3904 91.5399 15.3904C90.4812 15.3904 89.6791 15.822 89.1337 16.6917C88.5883 17.5614 88.3188 18.8755 88.3188 20.6406C88.3188 22.9082 88.6268 24.6153 89.2364 25.7684C89.8203 26.9151 91.4758 28.3001 94.2092 29.9235C102.044 34.594 106.985 38.4269 109.019 41.4224C111.053 44.418 112.073 49.2495 112.073 55.9105C112.073 60.7548 111.508 64.3237 110.379 66.617C109.25 68.9104 107.068 70.8365 103.834 72.389C100.6 73.9416 96.8336 74.721 92.5409 74.721C87.8311 74.721 83.808 73.8256 80.4778 72.0347C77.1476 70.2439 74.9659 67.9634 73.9329 65.1933C72.8998 62.4233 72.3865 58.4872 72.3865 53.3916V48.9402H88.7423V57.2117C88.7423 59.7563 88.9733 61.399 89.4353 62.127C89.8973 62.8549 90.7122 63.2157 91.88 63.2157C93.0478 63.2157 93.9205 62.7518 94.4915 61.8306C95.0626 60.9094 95.3514 59.5373 95.3514 57.7142C95.3514 53.7137 94.8059 51.0919 93.7215 49.8614C92.6051 48.631 89.8588 46.5696 85.4827 43.69C81.1066 40.7783 78.2063 38.6653 76.7818 37.3511C75.3573 36.037 74.1831 34.2139 73.2463 31.8948C72.3095 29.5757 71.8475 26.6059 71.8475 22.992C71.8475 17.7868 72.5084 13.9796 73.8366 11.5703C75.1584 9.16103 77.3016 7.27997 80.2532 5.92071C83.2112 4.56146 86.7788 3.88505 90.9624 3.88505C95.5374 3.88505 99.4323 4.62588 102.653 6.11397C105.875 7.59563 108.005 9.4638 109.051 11.7185C110.097 13.9732 110.616 17.7997 110.616 23.2045V25.8908V25.8844Z" fill="#4460FF"/>
<path d="M117.604 5.30873H135.339C140.133 5.30873 143.822 5.6888 146.402 6.44251C148.981 7.19623 150.919 8.29136 152.215 9.71504C153.511 11.1387 154.39 12.8716 154.852 14.9008C155.314 16.9301 155.545 20.0737 155.545 24.3254V30.2456C155.545 34.5875 155.096 37.7505 154.21 39.7347C153.319 41.7252 151.682 43.2455 149.295 44.3085C146.915 45.3714 143.796 45.9061 139.946 45.9061H135.217V73.2845H117.61V5.30873H117.604ZM135.211 16.9429V34.2396C135.712 34.2654 136.148 34.2847 136.507 34.2847C138.124 34.2847 139.247 33.8853 139.876 33.0865C140.505 32.2877 140.819 30.6321 140.819 28.1133V22.5281C140.819 20.2026 140.453 18.6952 139.735 17.993C139.01 17.2908 137.502 16.9429 135.217 16.9429H135.211Z" fill="#4460FF"/>
<path d="M201 30.3358H183.393V24.1644C183.393 20.2734 183.226 17.8384 182.892 16.8592C182.559 15.88 181.763 15.3904 180.506 15.3904C179.421 15.3904 178.677 15.8091 178.292 16.653C177.9 17.4905 177.708 19.6486 177.708 23.1208V55.7494C177.708 58.8029 177.9 60.8064 178.292 61.7727C178.683 62.739 179.466 63.2221 180.634 63.2221C181.917 63.2221 182.79 62.6745 183.245 61.5858C183.707 60.4971 183.938 58.3648 183.938 55.2018V47.1429H180.384V36.8164H201V73.3038H189.938L188.308 68.4337C187.108 70.5337 185.594 72.1056 183.765 73.1556C181.936 74.2057 179.78 74.7275 177.297 74.7275C174.339 74.7275 171.567 74.006 168.988 72.563C166.408 71.12 164.445 69.3355 163.104 67.2097C161.763 65.0838 160.929 62.8485 160.595 60.51C160.261 58.1716 160.094 54.6672 160.094 49.9903V29.7947C160.094 23.3012 160.441 18.5856 161.14 15.6417C161.84 12.6977 163.835 10.0114 167.14 7.55698C170.444 5.10902 174.718 3.88505 179.96 3.88505C185.202 3.88505 189.399 4.94798 192.8 7.07383C196.2 9.19968 198.421 11.7249 199.447 14.656C200.48 17.5807 200.994 21.8324 200.994 27.3983V30.3358H201Z" fill="#4460FF"/>
</svg>
