<svg width="79" height="79" viewBox="0 0 79 79" fill="none" xmlns="http://www.w3.org/2000/svg">
<path d="M73.4476 32.4818C72.5354 28.2012 70.823 24.1161 68.3499 20.3244C69.0863 19.197 69.5198 17.8159 69.5198 16.5571C69.5198 12.579 66.4011 9.46558 62.4217 9.46558C60.9336 9.46558 59.6576 9.85361 58.6211 10.6205C54.8236 8.15482 50.732 6.44686 46.4465 5.53941C45.7131 2.30681 42.8854 0 39.5667 0C36.248 0 33.29 2.35265 32.6717 5.54247C28.3801 6.45297 24.2855 8.16704 20.485 10.6388C19.3545 9.91166 18.0028 9.51752 16.6329 9.51752C14.7295 9.51752 12.9444 10.2539 11.6078 11.5891C9.21959 13.9723 8.85287 17.5623 10.6562 20.4497C8.17701 24.2475 6.4616 28.3417 5.54934 32.6315C2.30944 33.3617 0 36.188 0 39.5061C0 42.8243 2.35794 45.7819 5.55237 46.396C6.46463 50.6797 8.18004 54.7678 10.6562 58.5625C8.85287 61.4499 9.21959 65.04 11.6078 67.4232C12.9444 68.7584 14.7113 69.4947 16.5813 69.4947C17.9543 69.4947 19.2908 69.1067 20.4789 68.3673C24.2855 70.8452 28.3892 72.5593 32.6899 73.4698C33.4233 76.7024 36.251 79.0061 39.5697 79.0061C42.8884 79.0061 45.8464 76.6535 46.4647 73.4667C50.7532 72.5562 54.8508 70.8452 58.6484 68.3734C59.7758 69.1128 61.1579 69.5436 62.4247 69.5436C66.4072 69.5436 69.5228 66.4271 69.5228 62.452C69.5228 60.9671 69.1348 59.6961 68.3711 58.6573C70.8381 54.8686 72.5445 50.7866 73.4537 46.5091C76.6936 45.7788 79.003 42.9526 79.003 39.6344C79.003 36.3163 76.5966 33.1143 73.4507 32.4848L73.4476 32.4818ZM71.6807 42.0024H71.6413C70.4199 42.0024 69.5228 42.7662 69.3561 43.9425C68.5923 48.767 66.6557 53.3806 63.7674 57.2671C63.4218 57.6979 63.2612 58.2753 63.3279 58.8559C63.3915 59.4455 63.6825 59.9833 64.1129 60.3286C64.716 60.8296 65.0615 61.5568 65.0615 62.3207C65.0615 63.7964 63.9007 64.9513 62.4217 64.9513C61.6519 64.9513 60.9215 64.6061 60.4244 64.0103C60.0213 63.5062 59.3727 63.2037 58.6969 63.2037C58.2059 63.2037 57.7361 63.3625 57.3876 63.6406C53.4779 66.5371 48.8529 68.4712 44.0128 69.235C42.946 69.4122 42.0761 70.4388 42.0761 71.5235V71.5632C42.1277 72.3057 41.8761 73.0115 41.373 73.5553C40.8669 74.0992 40.1607 74.4108 39.4333 74.4108C38.7059 74.4108 37.9998 74.0992 37.4936 73.5553C36.9905 73.0115 36.742 72.3057 36.7905 71.5632V71.5235C36.7905 70.3013 36.0267 69.403 34.8508 69.235C30.0137 68.4742 25.3918 66.5401 21.4972 63.6559C21.1335 63.3656 20.6607 63.2037 20.1698 63.2037C19.5 63.2037 18.8605 63.497 18.4543 63.992C17.9058 64.5908 17.1905 64.9177 16.4419 64.9177C15.7388 64.9177 15.0781 64.6305 14.5356 64.0897C14.0234 63.5795 13.7415 62.8615 13.7567 62.1221C13.7748 61.3796 14.084 60.6921 14.6325 60.1911C15.0629 59.8397 15.3478 59.305 15.4115 58.7214C15.4751 58.144 15.3145 57.5665 14.9841 57.154C12.0837 53.2523 10.147 48.6387 9.38326 43.8081C9.20444 42.7418 8.18004 41.874 7.09806 41.874H7.05866C6.99501 41.8801 6.9344 41.8801 6.87075 41.8801C6.14943 41.8801 5.4766 41.599 4.96743 41.0888C4.47038 40.5877 4.19458 39.9308 4.19458 39.2434C4.19458 37.789 5.39477 36.6066 6.86772 36.6066C6.93137 36.6066 6.99198 36.6066 7.05563 36.6127H7.09503C8.31643 36.6127 9.21353 35.8488 9.38023 34.6725C10.144 29.848 12.0806 25.2344 14.9659 21.348C15.3084 20.9172 15.4721 20.3427 15.4084 19.7622C15.3448 19.1817 15.0599 18.647 14.6295 18.2926C14.0506 17.7609 13.7203 17.0735 13.7051 16.3494C13.6869 15.6405 13.984 14.9469 14.5325 14.397C15.0356 13.8928 15.7145 13.6178 16.4449 13.6178C17.2178 13.6178 17.9331 13.9295 18.4513 14.4947C18.8574 14.9897 19.4969 15.283 20.1667 15.283C20.6577 15.283 21.1275 15.1242 21.476 14.8461C25.3857 11.9496 30.0107 10.0155 34.8508 9.2517C35.9176 9.07449 36.7875 8.04788 36.7875 6.96322V6.9235C36.7359 6.18104 36.9875 5.47525 37.4906 4.93139C37.9967 4.38753 38.7029 4.07588 39.4303 4.07588C40.1577 4.07588 40.8638 4.38753 41.37 4.93139C41.8731 5.47525 42.1216 6.18104 42.0731 6.9235V6.96322C42.0731 8.18537 42.8369 9.08366 44.0128 9.2517C48.8499 10.0155 53.4718 11.9496 57.3664 14.8308C57.7301 15.1211 58.2029 15.283 58.6938 15.283C59.3636 15.283 60.0031 14.9897 60.4093 14.4947C60.9609 13.8959 61.6731 13.569 62.4217 13.569C63.1248 13.569 63.7855 13.8562 64.328 14.4C64.8402 14.9103 65.1221 15.6283 65.107 16.3646C65.0888 17.1071 64.7796 17.7915 64.2311 18.2956C63.8007 18.6501 63.5158 19.1817 63.4522 19.7653C63.3885 20.3427 63.5491 20.9202 63.8795 21.3327C66.7799 25.2344 68.7166 29.848 69.4803 34.6786C69.6592 35.7449 70.6836 36.6157 71.7655 36.6157H71.8049C71.8686 36.6096 71.9292 36.6066 71.9929 36.6066C73.4597 36.6066 74.6539 37.7798 74.666 39.225C74.5508 40.8138 73.3476 42.0115 71.8595 42.0115C71.7989 42.0115 71.7352 42.0115 71.6746 42.0054L71.6807 42.0024Z" fill="#4460FF"/>
<path d="M50.2895 19.5453L50.2592 19.5239L50.2259 19.5056C49.9077 19.3467 49.55 19.2642 49.1863 19.2642C48.3256 19.2642 47.5679 19.7103 47.2133 20.4161L27.7285 57.759C27.4527 58.3059 27.4072 58.9597 27.6042 59.5494C27.7861 60.0994 28.1589 60.5394 28.6498 60.7838C28.9681 60.9427 29.3287 61.0282 29.6924 61.0282C30.5532 61.0282 31.3109 60.5822 31.6655 59.8733L51.1503 22.5304C51.6867 21.461 51.3321 20.2328 50.2926 19.5422L50.2895 19.5453Z" fill="#4460FF"/>
<path d="M35.2357 31.333C35.2357 27.3549 32.117 24.2414 28.1376 24.2414C24.1583 24.2414 21.0396 27.3579 21.0396 31.333C21.0396 35.308 24.1583 38.4245 28.1376 38.4245C32.117 38.4245 35.2357 35.1766 35.2357 31.333ZM28.1376 28.7053C29.6197 28.7053 30.7775 29.8603 30.7775 31.336C30.7775 32.8118 29.6167 33.9667 28.1376 33.9667C26.6586 33.9667 25.4979 32.7384 25.4979 31.336C25.4979 29.8603 26.6586 28.7053 28.1376 28.7053Z" fill="#4460FF"/>
<path d="M50.8624 40.4441C46.8799 40.4441 43.7643 43.5606 43.7643 47.5357C43.7643 51.5107 46.883 54.6272 50.8624 54.6272C54.8417 54.6272 57.9604 51.5107 57.9604 47.5357C57.9604 43.5606 54.7751 40.4441 50.8624 40.4441ZM50.8624 44.908C52.3414 44.908 53.5021 46.063 53.5021 47.5387C53.5021 49.0145 52.2929 50.1694 50.8624 50.1694C49.4318 50.1694 48.2225 49.0145 48.2225 47.5387C48.2225 46.063 49.3833 44.908 50.8624 44.908Z" fill="#4460FF"/>
</svg>
